<svg width="25" height="24" viewBox="0 0 25 24" fill="none" xmlns="http://www.w3.org/2000/svg">
<path fill-rule="evenodd" clip-rule="evenodd" d="M16.8891 0C17.0985 1.45774 16.5196 2.88585 15.756 3.89625C14.939 4.98003 13.5308 5.81827 12.1664 5.77452C11.9173 4.37887 12.555 2.94089 13.331 1.97423C14.1822 0.907385 15.641 0.0889039 16.8891 0ZM20.9878 20.5185C21.6912 19.4135 21.954 18.8561 22.5 17.6086C18.5286 16.0606 17.8922 10.2733 21.8226 8.05215C20.6238 6.51115 18.9391 5.61788 17.3489 5.61788C16.2031 5.61788 15.418 5.92437 14.7043 6.203C14.1096 6.43519 13.5644 6.64803 12.9012 6.64803C12.1847 6.64803 11.5501 6.41482 10.8856 6.17063C10.1555 5.9023 9.3893 5.6207 8.43853 5.6207C6.65399 5.6207 4.75449 6.73835 3.5502 8.64908C1.85735 11.3402 2.14611 16.3992 4.89134 20.709C5.87257 22.2514 7.1836 23.9843 8.89835 23.9998C9.60986 24.0071 10.0833 23.7894 10.5957 23.5539C11.1821 23.2842 11.8195 22.9912 12.9231 22.9852C14.0333 22.9784 14.6606 23.275 15.2393 23.5485C15.7385 23.7846 16.2014 24.0034 16.9069 23.9956C18.623 23.9815 20.0066 22.0609 20.9878 20.5185Z" fill="white"/>
</svg>
