
<svg width="24" height="24" viewBox="0 0 24 24" fill="none" xmlns="http://www.w3.org/2000/svg">
<path d="M12.2449 4.64C14.5443 4.64 16.0953 5.61334 16.9796 6.42667L20.4354 3.12C18.313 1.18667 15.5511 0 12.2449 0C7.45581 0 3.31976 2.69334 1.30615 6.61334L5.26534 9.62667C6.25853 6.73334 9.00683 4.64 12.2449 4.64Z" fill="#F25022"/>
<path d="M24 12.2668C24 11.2801 23.9183 10.5601 23.7415 9.81348H12.2449V14.2668H18.9932C18.8571 15.3735 18.1224 17.0401 16.4898 18.1601L20.3537 21.0935C22.6666 19.0001 24 15.9201 24 12.2668Z" fill="#4285F4"/>
<path d="M5.27891 14.3733C5.02041 13.6266 4.87075 12.8266 4.87075 12C4.87075 11.1733 5.02041 10.3733 5.26531 9.62662L1.30612 6.61328C0.476191 8.23995 0 10.0666 0 12C0 13.9333 0.476191 15.76 1.30612 17.3866L5.27891 14.3733Z" fill="#FBBC05"/>
<path d="M12.245 23.9997C15.5511 23.9997 18.3266 22.9331 20.3538 21.0931L16.4899 18.1597C15.4559 18.8664 14.0681 19.3597 12.245 19.3597C9.0069 19.3597 6.2586 17.2664 5.27901 14.373L1.31982 17.3864C3.33343 21.3064 7.45588 23.9997 12.245 23.9997Z" fill="#34A853"/>
</svg>
