<svg width="105" height="28" viewBox="0 0 105 28" fill="none" xmlns="http://www.w3.org/2000/svg">
<path d="M92 15L92 8H90V15C90 17.7614 92.2386 20 95 20C97.7614 20 100 17.7614 100 15L100 8H98L98 15C98 16.6569 96.6569 18 95 18C93.3431 18 92 16.6569 92 15Z" fill="#EDEDFF"/>
<path d="M92 15L92 8H90V15C90 17.7614 92.2386 20 95 20C97.7614 20 100 17.7614 100 15L100 8H98L98 15C98 16.6569 96.6569 18 95 18C93.3431 18 92 16.6569 92 15Z" fill="black" fill-opacity="0.4" style="mix-blend-mode:hard-light"/>
<path d="M103 8V20H105V8H103Z" fill="#EDEDFF"/>
<path d="M103 8V20H105V8H103Z" fill="black" fill-opacity="0.4" style="mix-blend-mode:hard-light"/>
<path d="M41.7514 19.0976C40.9191 19.7073 39.8006 20 38.396 20C37.5376 20 36.7572 19.878 36.0549 19.6585C35.3526 19.439 34.6503 19.1463 34 18.7561L34.8064 17.0244C35.4566 17.439 36.0549 17.7073 36.6272 17.878C37.1994 18.0488 37.7717 18.1463 38.3179 18.1463C39.1243 18.1463 39.7225 18.0244 40.1647 17.7561C40.5809 17.4878 40.789 17.122 40.789 16.6341C40.789 16.0976 40.5549 15.6829 40.0607 15.4146C39.5665 15.1463 38.9422 14.878 38.1879 14.6098C37.0694 14.2195 36.185 13.7805 35.5347 13.2927C34.8584 12.8049 34.5202 12.0976 34.4942 11.1707C34.4682 10.1707 34.8584 9.39024 35.6647 8.82927C36.4711 8.26829 37.5116 8 38.8121 8C39.4624 8 40.0867 8.07317 40.711 8.2439C41.3353 8.41463 41.9335 8.65854 42.4798 9L41.6734 10.6585C41.1792 10.3902 40.711 10.1951 40.2688 10.0488C39.8006 9.90244 39.3064 9.82927 38.8121 9.82927C38.1619 9.82927 37.6416 9.92683 37.2514 10.1463C36.8613 10.3659 36.6792 10.7073 36.6792 11.1463C36.6792 11.6341 36.9393 12 37.4335 12.2439C37.9277 12.4878 38.578 12.7561 39.3324 13.0488C40.4509 13.439 41.3353 13.878 42.0116 14.3902C42.6619 14.9024 43 15.6098 43 16.561C43 17.6585 42.5838 18.4878 41.7514 19.0976Z" fill="#EDEDFF"/>
<path d="M54 13V20H56V13C56 10.2386 53.7614 8 51 8C48.2386 8 46 10.2386 46 13V20H48V13C48 11.3431 49.3431 10 51 10C52.6569 10 54 11.3431 54 13Z" fill="#EDEDFF"/>
<path fill-rule="evenodd" clip-rule="evenodd" d="M71 14C71 17.3137 68.3137 20 65 20C61.6863 20 59 17.3137 59 14C59 10.6863 61.6863 8 65 8C68.3137 8 71 10.6863 71 14ZM69 14C69 16.2091 67.2091 18 65 18C62.7909 18 61 16.2091 61 14C61 11.7909 62.7909 10 65 10C67.2091 10 69 11.7909 69 14Z" fill="#EDEDFF"/>
<path d="M73 8L74.8849 18.3516C75.2759 20.4988 78.143 20.5684 78.6258 18.4424L79.7431 12.5418C79.7842 12.3251 80.0747 12.3295 80.11 12.5474L81.0502 18.3547C81.4675 20.4986 84.339 20.5261 84.7927 18.3906L87 8H85.0588L83.1166 17.9604C83.0748 18.1745 82.7885 18.1717 82.7505 17.9568L80.9863 8H79.0323L76.9663 17.9897C76.9221 18.2031 76.6362 18.1968 76.6003 17.9817L74.932 8H73Z" fill="#EDEDFF"/>
<path d="M23.8 9.79981C26.1196 9.79981 28 11.6802 28 13.9998C28 16.3194 26.1196 18.1998 23.8 18.1998L4.2 18.1998C1.8804 18.1998 -1.01393e-07 16.3194 0 13.9998C1.01393e-07 11.6802 1.8804 9.7998 4.2 9.7998L23.8 9.79981Z" fill="#7094F4"/>
<path d="M9.80005 4.2C9.80005 1.8804 11.6805 0 14 0C16.3196 0 18.2 1.8804 18.2 4.2V23.8C18.2 26.1196 16.3196 28 14 28C11.6805 28 9.80005 26.1196 9.80005 23.8V4.2Z" fill="#7094F4"/>
<path d="M9.80005 4.2C9.80005 1.8804 11.6805 0 14 0C16.3196 0 18.2 1.8804 18.2 4.2V23.8C18.2 26.1196 16.3196 28 14 28C11.6805 28 9.80005 26.1196 9.80005 23.8V4.2Z" fill="white" fill-opacity="0.4" style="mix-blend-mode:screen"/>
<path d="M23.9002 17.96C25.5404 19.6003 25.5404 22.2597 23.9002 23.8999C22.2599 25.5402 19.6005 25.5402 17.9603 23.8999L4.10055 10.0402C2.4603 8.39994 2.4603 5.74056 4.10055 4.10031C5.74081 2.46005 8.40018 2.46005 10.0404 4.10031L23.9002 17.96Z" fill="#7094F4"/>
<path d="M23.9002 17.96C25.5404 19.6003 25.5404 22.2597 23.9002 23.8999C22.2599 25.5402 19.6005 25.5402 17.9603 23.8999L4.10055 10.0402C2.4603 8.39994 2.4603 5.74056 4.10055 4.10031C5.74081 2.46005 8.40018 2.46005 10.0404 4.10031L23.9002 17.96Z" fill="white" fill-opacity="0.2" style="mix-blend-mode:soft-light"/>
<path d="M17.9603 4.10031C19.6005 2.46005 22.2599 2.46005 23.9002 4.10031C25.5404 5.74056 25.5404 8.39994 23.9002 10.0402L10.0404 23.8999C8.40018 25.5402 5.74081 25.5402 4.10055 23.8999C2.4603 22.2597 2.4603 19.6003 4.10055 17.96L17.9603 4.10031Z" fill="#7094F4"/>
<path d="M17.9603 4.10031C19.6005 2.46005 22.2599 2.46005 23.9002 4.10031C25.5404 5.74056 25.5404 8.39994 23.9002 10.0402L10.0404 23.8999C8.40018 25.5402 5.74081 25.5402 4.10055 23.8999C2.4603 22.2597 2.4603 19.6003 4.10055 17.96L17.9603 4.10031Z" fill="white" fill-opacity="0.3" style="mix-blend-mode:overlay"/>
<path fill-rule="evenodd" clip-rule="evenodd" d="M14 4.2002C13.6907 4.2002 13.44 4.45092 13.44 4.7602V12.1074C13.44 12.2771 13.44 12.3619 13.4064 12.4012C13.3773 12.4352 13.3336 12.4533 13.289 12.4498C13.2375 12.4458 13.1775 12.3858 13.0576 12.2658L7.86227 7.07055C7.64358 6.85186 7.289 6.85186 7.07031 7.07055C6.85162 7.28924 6.85162 7.64382 7.07031 7.86251L12.2656 13.0578C12.3855 13.1777 12.4455 13.2377 12.4496 13.2892C12.4531 13.3339 12.435 13.3775 12.4009 13.4067C12.3617 13.4402 12.2768 13.4402 12.1072 13.4402H4.75995C4.45067 13.4402 4.19995 13.6909 4.19995 14.0002C4.19995 14.3095 4.45067 14.5602 4.75995 14.5602H12.1072C12.2768 14.5602 12.3617 14.5602 12.4009 14.5937C12.435 14.6228 12.4531 14.6665 12.4496 14.7112C12.4455 14.7627 12.3856 14.8226 12.2656 14.9426L7.07031 20.1379C6.85161 20.3566 6.85161 20.7111 7.07031 20.9298C7.289 21.1485 7.64357 21.1485 7.86227 20.9298L13.0576 15.7345C13.1775 15.6146 13.2375 15.5546 13.289 15.5506C13.3336 15.5471 13.3773 15.5651 13.4064 15.5992C13.44 15.6385 13.44 15.7233 13.44 15.8929V23.2402C13.44 23.5495 13.6907 23.8002 14 23.8002C14.3092 23.8002 14.56 23.5495 14.56 23.2402V15.8929C14.56 15.7233 14.56 15.6385 14.5935 15.5992C14.6226 15.5651 14.6663 15.5471 14.7109 15.5506C14.7624 15.5546 14.8224 15.6146 14.9423 15.7345L20.1376 20.9298C20.3563 21.1485 20.7109 21.1485 20.9296 20.9298C21.1483 20.7112 21.1483 20.3566 20.9296 20.1379L15.7343 14.9426C15.6144 14.8226 15.5544 14.7627 15.5503 14.7112C15.5468 14.6665 15.5649 14.6228 15.599 14.5937C15.6383 14.5602 15.7231 14.5602 15.8927 14.5602H23.24C23.5492 14.5602 23.8 14.3095 23.8 14.0002C23.8 13.6909 23.5492 13.4402 23.24 13.4402H15.8927C15.7231 13.4402 15.6383 13.4402 15.599 13.4067C15.5649 13.3775 15.5468 13.3339 15.5503 13.2892C15.5544 13.2377 15.6144 13.1777 15.7343 13.0578L20.9296 7.86251C21.1483 7.64382 21.1483 7.28924 20.9296 7.07055C20.7109 6.85186 20.3563 6.85186 20.1376 7.07055L14.9423 12.2658C14.8224 12.3858 14.7624 12.4458 14.7109 12.4498C14.6663 12.4533 14.6226 12.4352 14.5935 12.4012C14.56 12.3619 14.56 12.2771 14.56 12.1075V4.7602C14.56 4.45092 14.3092 4.2002 14 4.2002Z" fill="white"/>
</svg>
