<svg width="26" height="24" viewBox="0 0 26 24" fill="none" xmlns="http://www.w3.org/2000/svg">
<path d="M24 4H19V3C19 2.20435 18.6839 1.44129 18.1213 0.87868C17.5587 0.316071 16.7956 0 16 0H10C9.20435 0 8.44129 0.316071 7.87868 0.87868C7.31607 1.44129 7 2.20435 7 3V4H2C1.46957 4 0.960859 4.21071 0.585786 4.58579C0.210714 4.96086 0 5.46957 0 6V22C0 22.5304 0.210714 23.0391 0.585786 23.4142C0.960859 23.7893 1.46957 24 2 24H24C24.5304 24 25.0391 23.7893 25.4142 23.4142C25.7893 23.0391 26 22.5304 26 22V6C26 5.46957 25.7893 4.96086 25.4142 4.58579C25.0391 4.21071 24.5304 4 24 4ZM9 3C9 2.73478 9.10536 2.48043 9.29289 2.29289C9.48043 2.10536 9.73478 2 10 2H16C16.2652 2 16.5196 2.10536 16.7071 2.29289C16.8946 2.48043 17 2.73478 17 3V4H9V3ZM24 6V15H2V6H24ZM24 22H2V17H24V22Z" fill="white"/>
</svg>
