<svg width="46" height="70" viewBox="0 0 46 70" fill="none" xmlns="http://www.w3.org/2000/svg">
<path d="M38 0H8C6.01088 0 4.10322 0.790177 2.6967 2.1967C1.29018 3.60322 0.5 5.51088 0.5 7.5V62.5C0.5 64.4891 1.29018 66.3968 2.6967 67.8033C4.10322 69.2098 6.01088 70 8 70H38C39.9891 70 41.8968 69.2098 43.3033 67.8033C44.7098 66.3968 45.5 64.4891 45.5 62.5V7.5C45.5 5.51088 44.7098 3.60322 43.3033 2.1967C41.8968 0.790177 39.9891 0 38 0ZM5.5 15H40.5V55H5.5V15ZM8 5H38C38.663 5 39.2989 5.26339 39.7678 5.73223C40.2366 6.20107 40.5 6.83696 40.5 7.5V10H5.5V7.5C5.5 6.83696 5.76339 6.20107 6.23223 5.73223C6.70107 5.26339 7.33696 5 8 5ZM38 65H8C7.33696 65 6.70107 64.7366 6.23223 64.2678C5.76339 63.7989 5.5 63.163 5.5 62.5V60H40.5V62.5C40.5 63.163 40.2366 63.7989 39.7678 64.2678C39.2989 64.7366 38.663 65 38 65Z" fill="white"/>
</svg>
